<svg width="219" height="219" viewBox="0 0 219 219" fill="none" xmlns="http://www.w3.org/2000/svg">
<path d="M212.129 110.123C212.122 53.4497 166.18 7.50757 109.5 7.50757C52.82 7.50757 6.87109 53.4565 6.87109 110.136C6.87109 161.157 44.1011 203.478 92.8697 211.424L93.4582 211.506V139.797H67.3972V110.123H93.4582V87.5247C93.3282 86.3818 93.2597 85.0541 93.2597 83.7127C93.2597 63.7084 109.479 47.4888 129.484 47.4888C130.449 47.4888 131.407 47.5298 132.358 47.5983L132.235 47.5914C140.441 47.7078 148.379 48.4332 156.126 49.7267L155.209 49.5966V74.8501H142.261C141.672 74.7679 140.995 74.72 140.311 74.72C132.119 74.72 125.473 81.3585 125.473 89.5573C125.473 90.0227 125.494 90.4812 125.535 90.9397L125.528 90.8781V110.123H153.991L149.44 139.797H125.528V211.506C174.892 203.472 212.122 161.143 212.129 110.123Z" fill="white"/>
</svg>
