<svg width="191" height="191" viewBox="0 0 191 191" fill="none" xmlns="http://www.w3.org/2000/svg">
<g clip-path="url(#clip0_605_7)">
<path d="M141.33 109.751C140.958 109.573 127.034 102.716 124.559 101.825C123.549 101.463 122.467 101.108 121.316 101.108C119.436 101.108 117.856 102.045 116.626 103.886C115.235 105.954 111.024 110.875 109.723 112.346C109.553 112.54 109.321 112.772 109.183 112.772C109.058 112.772 106.903 111.884 106.251 111.601C91.3135 105.113 79.9757 89.5095 78.421 86.8783C78.199 86.5 78.1897 86.3283 78.1879 86.3283C78.2425 86.128 78.7448 85.6244 79.004 85.3646C79.7624 84.6142 80.5841 83.6251 81.3791 82.6683C81.7555 82.2149 82.1325 81.761 82.5027 81.3331C83.6562 79.9912 84.1697 78.9493 84.765 77.7426L85.0769 77.1156C86.5305 74.2277 85.289 71.7906 84.8878 71.0036C84.5585 70.345 78.679 56.1552 78.0539 54.6644C76.5507 51.0671 74.5645 49.3921 71.8043 49.3921C71.5482 49.3921 71.8043 49.3921 70.7302 49.4374C69.4223 49.4925 62.3002 50.4302 59.1511 52.4152C55.8117 54.5206 50.1624 61.2316 50.1624 73.0339C50.1624 83.6561 56.9032 93.6855 59.7973 97.4999C59.8692 97.596 60.0013 97.7914 60.193 98.0717C71.2765 114.258 85.0936 126.254 99.1005 131.85C112.585 137.236 118.971 137.859 122.601 137.859H122.602C124.127 137.859 125.348 137.739 126.425 137.633L127.109 137.568C131.767 137.155 142.004 131.85 144.333 125.379C146.167 120.282 146.651 114.713 145.43 112.692C144.594 111.318 143.154 110.627 141.33 109.751Z" fill="white"/>
<path d="M97.1953 0C45.4665 0 3.38204 41.7682 3.38204 93.1082C3.38204 109.713 7.82589 125.968 16.2442 140.193L0.131324 187.723C-0.168819 188.609 0.0544274 189.589 0.709905 190.256C1.18306 190.74 1.8249 191 2.48038 191C2.73153 191 2.98454 190.962 3.23135 190.883L52.7921 175.135C66.3544 182.381 81.6827 186.206 97.1959 186.206C148.92 186.206 191 144.443 191 93.1082C191 41.7682 148.92 0 97.1953 0ZM97.1953 166.811C82.598 166.811 68.4597 162.596 56.3064 154.621C55.8977 154.353 55.4233 154.215 54.9458 154.215C54.6934 154.215 54.4404 154.254 54.1942 154.332L29.3673 162.224L37.3819 138.579C37.6411 137.813 37.5115 136.969 37.034 136.317C27.7792 123.671 22.887 108.73 22.887 93.1082C22.887 52.463 56.2214 19.3952 97.1947 19.3952C138.163 19.3952 171.494 52.463 171.494 93.1082C171.494 133.748 138.164 166.811 97.1953 166.811Z" fill="white"/>
</g>
<defs>
<clipPath id="clip0_605_7">
<rect width="191" height="191" fill="white"/>
</clipPath>
</defs>
</svg>
