<svg width="44" height="44" viewBox="0 0 44 44" fill="none" xmlns="http://www.w3.org/2000/svg">
<path fill-rule="evenodd" clip-rule="evenodd" d="M5.5 12.8333C5.5 12.3471 5.69315 11.8808 6.03697 11.537C6.38079 11.1932 6.8471 11 7.33333 11H36.6667C37.1529 11 37.6192 11.1932 37.963 11.537C38.3068 11.8808 38.5 12.3471 38.5 12.8333C38.5 13.3196 38.3068 13.7859 37.963 14.1297C37.6192 14.4735 37.1529 14.6667 36.6667 14.6667H7.33333C6.8471 14.6667 6.38079 14.4735 6.03697 14.1297C5.69315 13.7859 5.5 13.3196 5.5 12.8333ZM9.16667 21.0833C9.16667 20.5971 9.35982 20.1308 9.70364 19.787C10.0475 19.4432 10.5138 19.25 11 19.25H33C33.4862 19.25 33.9525 19.4432 34.2964 19.787C34.6402 20.1308 34.8333 20.5971 34.8333 21.0833C34.8333 21.5696 34.6402 22.0359 34.2964 22.3797C33.9525 22.7235 33.4862 22.9167 33 22.9167H11C10.5138 22.9167 10.0475 22.7235 9.70364 22.3797C9.35982 22.0359 9.16667 21.5696 9.16667 21.0833ZM14.6667 29.3333C14.6667 28.8471 14.8598 28.3808 15.2036 28.037C15.5475 27.6932 16.0138 27.5 16.5 27.5H27.5C27.9862 27.5 28.4525 27.6932 28.7964 28.037C29.1402 28.3808 29.3333 28.8471 29.3333 29.3333C29.3333 29.8196 29.1402 30.2859 28.7964 30.6297C28.4525 30.9735 27.9862 31.1667 27.5 31.1667H16.5C16.0138 31.1667 15.5475 30.9735 15.2036 30.6297C14.8598 30.2859 14.6667 29.8196 14.6667 29.3333Z" fill="#A82486"/>
</svg>
