<svg width="44" height="44" viewBox="0 0 44 44" fill="none" xmlns="http://www.w3.org/2000/svg">
<path fill-rule="evenodd" clip-rule="evenodd" d="M20.1667 31.1667C21.6112 31.1667 23.0416 30.8821 24.3762 30.3293C25.7108 29.7765 26.9234 28.9663 27.9448 27.9448C28.9663 26.9234 29.7765 25.7108 30.3293 24.3762C30.8821 23.0416 31.1667 21.6112 31.1667 20.1667C31.1667 18.7221 30.8821 17.2917 30.3293 15.9571C29.7765 14.6226 28.9663 13.4099 27.9448 12.3885C26.9234 11.367 25.7108 10.5568 24.3762 10.004C23.0416 9.45119 21.6112 9.16667 20.1667 9.16667C17.2493 9.16667 14.4514 10.3256 12.3885 12.3885C10.3256 14.4514 9.16667 17.2493 9.16667 20.1667C9.16667 23.084 10.3256 25.8819 12.3885 27.9448C14.4514 30.0077 17.2493 31.1667 20.1667 31.1667ZM20.1667 34.8333C24.0565 34.8333 27.787 33.2881 30.5376 30.5376C33.2881 27.787 34.8333 24.0565 34.8333 20.1667C34.8333 16.2768 33.2881 12.5463 30.5376 9.79577C27.787 7.04523 24.0565 5.5 20.1667 5.5C16.2768 5.5 12.5463 7.04523 9.79577 9.79577C7.04523 12.5463 5.5 16.2768 5.5 20.1667C5.5 24.0565 7.04523 27.787 9.79577 30.5376C12.5463 33.2881 16.2768 34.8333 20.1667 34.8333Z" fill="#A82486"/>
<path fill-rule="evenodd" clip-rule="evenodd" d="M28.0866 28.0317C28.4316 27.6892 28.8985 27.4977 29.3847 27.4995C29.8708 27.5012 30.3363 27.6959 30.6789 28.0408L37.9664 35.3742C38.2995 35.7208 38.4831 36.1845 38.4776 36.6653C38.4722 37.146 38.278 37.6054 37.9371 37.9444C37.5962 38.2834 37.1357 38.4749 36.655 38.4777C36.1742 38.4804 35.7116 38.2942 35.3668 37.9592L28.0793 30.6258C27.7365 30.2811 27.5448 29.8143 27.5461 29.3281C27.5475 28.842 27.7419 28.3763 28.0866 28.0335V28.0317Z" fill="#A82486"/>
</svg>
